{
	"asset":{
		"generator":"Khronos glTF Blender I/O v4.5.47",
		"version":"2.0"
	},
	"scene":0,
	"scenes":[
		{
			"name":"Scene",
			"nodes":[
				0
			]
		}
	],
	"nodes":[
		{
			"mesh":0,
			"name":"ground_Baked"
		}
	],
	"meshes":[
		{
			"name":"Plane.006",
			"primitives":[
				{
					"attributes":{
						"POSITION":0,
						"NORMAL":1,
						"TEXCOORD_0":2,
						"TEXCOORD_1":3,
						"TEXCOORD_2":4,
						"TEXCOORD_3":5,
						"COLOR_0":6,
						"COLOR_1":7,
						"COLOR_2":8,
						"COLOR_3":9
					},
					"indices":10
				}
			]
		}
	],
	"accessors":[
		{
			"bufferView":0,
			"componentType":5126,
			"count":1811,
			"max":[
				24.72661590576172,
				0.7649098634719849,
				24.766010284423828
			],
			"min":[
				-24.6552677154541,
				-2.7305588722229004,
				-24.600770950317383
			],
			"type":"VEC3"
		},
		{
			"bufferView":1,
			"componentType":5126,
			"count":1811,
			"type":"VEC3"
		},
		{
			"bufferView":2,
			"componentType":5126,
			"count":1811,
			"type":"VEC2"
		},
		{
			"bufferView":3,
			"componentType":5126,
			"count":1811,
			"type":"VEC2"
		},
		{
			"bufferView":4,
			"componentType":5126,
			"count":1811,
			"type":"VEC2"
		},
		{
			"bufferView":5,
			"componentType":5126,
			"count":1811,
			"type":"VEC2"
		},
		{
			"bufferView":6,
			"componentType":5123,
			"count":1811,
			"normalized":true,
			"type":"VEC4"
		},
		{
			"bufferView":7,
			"componentType":5123,
			"count":1811,
			"normalized":true,
			"type":"VEC4"
		},
		{
			"bufferView":8,
			"componentType":5123,
			"count":1811,
			"normalized":true,
			"type":"VEC4"
		},
		{
			"bufferView":9,
			"componentType":5123,
			"count":1811,
			"normalized":true,
			"type":"VEC4"
		},
		{
			"bufferView":10,
			"componentType":5123,
			"count":9600,
			"type":"SCALAR"
		}
	],
	"bufferViews":[
		{
			"buffer":0,
			"byteLength":21732,
			"byteOffset":0,
			"target":34962
		},
		{
			"buffer":0,
			"byteLength":21732,
			"byteOffset":21732,
			"target":34962
		},
		{
			"buffer":0,
			"byteLength":14488,
			"byteOffset":43464,
			"target":34962
		},
		{
			"buffer":0,
			"byteLength":14488,
			"byteOffset":57952,
			"target":34962
		},
		{
			"buffer":0,
			"byteLength":14488,
			"byteOffset":72440,
			"target":34962
		},
		{
			"buffer":0,
			"byteLength":14488,
			"byteOffset":86928,
			"target":34962
		},
		{
			"buffer":0,
			"byteLength":14488,
			"byteOffset":101416,
			"target":34962
		},
		{
			"buffer":0,
			"byteLength":14488,
			"byteOffset":115904,
			"target":34962
		},
		{
			"buffer":0,
			"byteLength":14488,
			"byteOffset":130392,
			"target":34962
		},
		{
			"buffer":0,
			"byteLength":14488,
			"byteOffset":144880,
			"target":34962
		},
		{
			"buffer":0,
			"byteLength":19200,
			"byteOffset":159368,
			"target":34963
		}
	],
	"buffers":[
		{
			"byteLength":178568,
			"uri":"example_terrain.bin"
		}
	]
}
