{
	"asset":{
		"generator":"Khronos glTF Blender I/O v4.5.47",
		"version":"2.0"
	},
	"extensionsUsed":[
		"KHR_materials_unlit"
	],
	"scene":0,
	"scenes":[
		{
			"name":"Scene",
			"nodes":[
				0
			]
		}
	],
	"nodes":[
		{
			"mesh":0,
			"name":"stone_wall_Baked",
			"rotation":[
				0,
				0.2136928290128708,
				0,
				0.9769009351730347
			],
			"translation":[
				-0.6230982542037964,
				0.5,
				-8.703051567077637
			]
		}
	],
	"materials":[
		{
			"doubleSided":true,
			"extensions":{
				"KHR_materials_unlit":{}
			},
			"name":"stone_wall_Baked.006",
			"pbrMetallicRoughness":{
				"baseColorTexture":{
					"index":0
				},
				"metallicFactor":0,
				"roughnessFactor":0.9
			}
		}
	],
	"meshes":[
		{
			"name":"Cube.011",
			"primitives":[
				{
					"attributes":{
						"POSITION":0,
						"NORMAL":1,
						"TEXCOORD_0":2
					},
					"indices":3,
					"material":0
				}
			]
		}
	],
	"textures":[
		{
			"sampler":0,
			"source":0
		}
	],
	"images":[
		{
			"mimeType":"image/png",
			"name":"stone_wall_Bake1_CyclesBake_COMBINED",
			"uri":"textures/stone_wall_Bake1_CyclesBake_COMBINED.png"
		}
	],
	"accessors":[
		{
			"bufferView":0,
			"componentType":5126,
			"count":30357,
			"max":[
				9.407803535461426,
				1.1641403436660767,
				0.4657524824142456
			],
			"min":[
				-12.371818542480469,
				-0.9435896277427673,
				-1.2781435251235962
			],
			"type":"VEC3"
		},
		{
			"bufferView":1,
			"componentType":5126,
			"count":30357,
			"type":"VEC3"
		},
		{
			"bufferView":2,
			"componentType":5126,
			"count":30357,
			"type":"VEC2"
		},
		{
			"bufferView":3,
			"componentType":5123,
			"count":148578,
			"type":"SCALAR"
		}
	],
	"bufferViews":[
		{
			"buffer":0,
			"byteLength":364284,
			"byteOffset":0,
			"target":34962
		},
		{
			"buffer":0,
			"byteLength":364284,
			"byteOffset":364284,
			"target":34962
		},
		{
			"buffer":0,
			"byteLength":242856,
			"byteOffset":728568,
			"target":34962
		},
		{
			"buffer":0,
			"byteLength":297156,
			"byteOffset":971424,
			"target":34963
		}
	],
	"samplers":[
		{
			"magFilter":9729,
			"minFilter":9987
		}
	],
	"buffers":[
		{
			"byteLength":1268580,
			"uri":"stone_wall.bin"
		}
	]
}
