{
	"asset":{
		"generator":"Khronos glTF Blender I/O v4.5.47",
		"version":"2.0"
	},
	"scene":0,
	"scenes":[
		{
			"name":"Scene",
			"nodes":[
				0
			]
		}
	],
	"nodes":[
		{
			"mesh":0,
			"name":"Ground_Baked"
		}
	],
	"meshes":[
		{
			"name":"Plane.016",
			"primitives":[
				{
					"attributes":{
						"__UVPM3_V3_NORMALIZE_MULTIPLIER":0,
						"POSITION":1,
						"NORMAL":2,
						"TEXCOORD_0":3,
						"TEXCOORD_1":4,
						"TEXCOORD_2":5,
						"TEXCOORD_3":6,
						"COLOR_0":7,
						"COLOR_1":8,
						"COLOR_2":9,
						"COLOR_3":10
					},
					"indices":11
				}
			]
		}
	],
	"accessors":[
		{
			"bufferView":0,
			"componentType":5126,
			"count":1089,
			"type":"SCALAR"
		},
		{
			"bufferView":1,
			"componentType":5126,
			"count":1089,
			"max":[
				5.027737617492676,
				1.2134233713150024,
				5.0197296142578125
			],
			"min":[
				-5.035510540008545,
				-0.11989393830299377,
				-5.013189315795898
			],
			"type":"VEC3"
		},
		{
			"bufferView":2,
			"componentType":5126,
			"count":1089,
			"type":"VEC3"
		},
		{
			"bufferView":3,
			"componentType":5126,
			"count":1089,
			"type":"VEC2"
		},
		{
			"bufferView":4,
			"componentType":5126,
			"count":1089,
			"type":"VEC2"
		},
		{
			"bufferView":5,
			"componentType":5126,
			"count":1089,
			"type":"VEC2"
		},
		{
			"bufferView":6,
			"componentType":5126,
			"count":1089,
			"type":"VEC2"
		},
		{
			"bufferView":7,
			"componentType":5123,
			"count":1089,
			"normalized":true,
			"type":"VEC4"
		},
		{
			"bufferView":8,
			"componentType":5123,
			"count":1089,
			"normalized":true,
			"type":"VEC4"
		},
		{
			"bufferView":9,
			"componentType":5123,
			"count":1089,
			"normalized":true,
			"type":"VEC4"
		},
		{
			"bufferView":10,
			"componentType":5123,
			"count":1089,
			"normalized":true,
			"type":"VEC4"
		},
		{
			"bufferView":11,
			"componentType":5123,
			"count":6144,
			"type":"SCALAR"
		}
	],
	"bufferViews":[
		{
			"buffer":0,
			"byteLength":4356,
			"byteOffset":0,
			"target":34962
		},
		{
			"buffer":0,
			"byteLength":13068,
			"byteOffset":4356,
			"target":34962
		},
		{
			"buffer":0,
			"byteLength":13068,
			"byteOffset":17424,
			"target":34962
		},
		{
			"buffer":0,
			"byteLength":8712,
			"byteOffset":30492,
			"target":34962
		},
		{
			"buffer":0,
			"byteLength":8712,
			"byteOffset":39204,
			"target":34962
		},
		{
			"buffer":0,
			"byteLength":8712,
			"byteOffset":47916,
			"target":34962
		},
		{
			"buffer":0,
			"byteLength":8712,
			"byteOffset":56628,
			"target":34962
		},
		{
			"buffer":0,
			"byteLength":8712,
			"byteOffset":65340,
			"target":34962
		},
		{
			"buffer":0,
			"byteLength":8712,
			"byteOffset":74052,
			"target":34962
		},
		{
			"buffer":0,
			"byteLength":8712,
			"byteOffset":82764,
			"target":34962
		},
		{
			"buffer":0,
			"byteLength":8712,
			"byteOffset":91476,
			"target":34962
		},
		{
			"buffer":0,
			"byteLength":12288,
			"byteOffset":100188,
			"target":34963
		}
	],
	"buffers":[
		{
			"byteLength":112476,
			"uri":"example_terrain.bin"
		}
	]
}
