{
	"asset":{
		"generator":"Khronos glTF Blender I/O v4.5.47",
		"version":"2.0"
	},
	"extensionsUsed":[
		"KHR_materials_unlit"
	],
	"scene":0,
	"scenes":[
		{
			"name":"Scene",
			"nodes":[
				0,
				1,
				2,
				3,
				4,
				5,
				6,
				7,
				8,
				9,
				10,
				11,
				12,
				13,
				14,
				15,
				16
			]
		}
	],
	"nodes":[
		{
			"mesh":0,
			"name":"burnt_log_Baked",
			"translation":[
				3.474128007888794,
				0.9518614411354065,
				-3.8853373527526855
			]
		},
		{
			"mesh":1,
			"name":"wooden_fence_broken_Baked",
			"rotation":[
				-0.02173812873661518,
				0.2942994236946106,
				-0.006695870775729418,
				0.9554425477981567
			],
			"translation":[
				-1.5477168560028076,
				0.0195903517305851,
				2.178237199783325
			]
		},
		{
			"mesh":2,
			"name":"rock_Baked",
			"translation":[
				-1.9028825759887695,
				-0.0240163654088974,
				1.7066965103149414
			]
		},
		{
			"mesh":3,
			"name":"rock.001_Baked",
			"translation":[
				-1.0427231788635254,
				0.13346001505851746,
				3.904963493347168
			]
		},
		{
			"mesh":4,
			"name":"rock.002_Baked",
			"translation":[
				2.0640809535980225,
				0.4398152828216553,
				-4.118821144104004
			]
		},
		{
			"mesh":5,
			"name":"rock.003_Baked",
			"translation":[
				-1.7349607944488525,
				-0.11500649154186249,
				0.4783581495285034
			]
		},
		{
			"mesh":6,
			"name":"rock.004_Baked",
			"translation":[
				3.3579394817352295,
				0.31428518891334534,
				-3.260484218597412
			]
		},
		{
			"mesh":7,
			"name":"rock.005_Baked",
			"translation":[
				3.476578950881958,
				0.42382290959358215,
				-2.505052328109741
			]
		},
		{
			"mesh":8,
			"name":"rock.006_Baked",
			"translation":[
				-2.5565590858459473,
				0.34013617038726807,
				1.621988296508789
			]
		},
		{
			"mesh":9,
			"name":"rock.007_Baked",
			"translation":[
				-4.212063789367676,
				0.4257138967514038,
				3.1570582389831543
			]
		},
		{
			"mesh":10,
			"name":"rock.008_Baked",
			"translation":[
				-4.098049163818359,
				-0.08211152255535126,
				-3.2889513969421387
			]
		},
		{
			"mesh":11,
			"name":"rock.009_Baked",
			"translation":[
				2.05117130279541,
				-0.09963290393352509,
				0.2279757261276245
			]
		},
		{
			"mesh":12,
			"name":"rock.010_Baked",
			"translation":[
				2.5755951404571533,
				-0.17683391273021698,
				0.6459159255027771
			]
		},
		{
			"mesh":13,
			"name":"rock.011_Baked",
			"translation":[
				3.142030954360962,
				-0.07071544229984283,
				-0.034716129302978516
			]
		},
		{
			"mesh":14,
			"name":"rock.012_Baked",
			"translation":[
				1.6208596229553223,
				-0.14934581518173218,
				2.7891335487365723
			]
		},
		{
			"mesh":15,
			"name":"rock.015_Baked",
			"translation":[
				-0.2559821903705597,
				-0.02557172253727913,
				-2.5548715591430664
			]
		},
		{
			"mesh":16,
			"name":"tree_trunk_Baked",
			"translation":[
				2.922145366668701,
				0.6841678023338318,
				-4.032268524169922
			]
		}
	],
	"materials":[
		{
			"doubleSided":true,
			"extensions":{
				"KHR_materials_unlit":{}
			},
			"name":"objects_Baked.002",
			"pbrMetallicRoughness":{
				"baseColorTexture":{
					"index":0
				},
				"metallicFactor":0,
				"roughnessFactor":0.9
			}
		}
	],
	"meshes":[
		{
			"name":"Burnt Log 01.003",
			"primitives":[
				{
					"attributes":{
						"POSITION":0,
						"NORMAL":1,
						"TEXCOORD_0":2
					},
					"indices":3,
					"material":0
				}
			]
		},
		{
			"name":"Cube.004",
			"primitives":[
				{
					"attributes":{
						"POSITION":4,
						"NORMAL":5,
						"TEXCOORD_0":6
					},
					"indices":7,
					"material":0
				}
			]
		},
		{
			"name":"rock.044",
			"primitives":[
				{
					"attributes":{
						"POSITION":8,
						"NORMAL":9,
						"TEXCOORD_0":10
					},
					"indices":11,
					"material":0
				}
			]
		},
		{
			"name":"rock.045",
			"primitives":[
				{
					"attributes":{
						"POSITION":12,
						"NORMAL":13,
						"TEXCOORD_0":14
					},
					"indices":15,
					"material":0
				}
			]
		},
		{
			"name":"rock.046",
			"primitives":[
				{
					"attributes":{
						"POSITION":16,
						"NORMAL":17,
						"TEXCOORD_0":18
					},
					"indices":19,
					"material":0
				}
			]
		},
		{
			"name":"rock.047",
			"primitives":[
				{
					"attributes":{
						"POSITION":20,
						"NORMAL":21,
						"TEXCOORD_0":22
					},
					"indices":23,
					"material":0
				}
			]
		},
		{
			"name":"rock.048",
			"primitives":[
				{
					"attributes":{
						"POSITION":24,
						"NORMAL":25,
						"TEXCOORD_0":26
					},
					"indices":27,
					"material":0
				}
			]
		},
		{
			"name":"rock.049",
			"primitives":[
				{
					"attributes":{
						"POSITION":28,
						"NORMAL":29,
						"TEXCOORD_0":30
					},
					"indices":31,
					"material":0
				}
			]
		},
		{
			"name":"rock.050",
			"primitives":[
				{
					"attributes":{
						"POSITION":32,
						"NORMAL":33,
						"TEXCOORD_0":34
					},
					"indices":35,
					"material":0
				}
			]
		},
		{
			"name":"rock.051",
			"primitives":[
				{
					"attributes":{
						"POSITION":36,
						"NORMAL":37,
						"TEXCOORD_0":38
					},
					"indices":39,
					"material":0
				}
			]
		},
		{
			"name":"rock.052",
			"primitives":[
				{
					"attributes":{
						"POSITION":40,
						"NORMAL":41,
						"TEXCOORD_0":42
					},
					"indices":43,
					"material":0
				}
			]
		},
		{
			"name":"rock.053",
			"primitives":[
				{
					"attributes":{
						"POSITION":44,
						"NORMAL":45,
						"TEXCOORD_0":46,
						"COLOR_0":47,
						"COLOR_1":48
					},
					"indices":49,
					"material":0
				}
			]
		},
		{
			"name":"rock.054",
			"primitives":[
				{
					"attributes":{
						"POSITION":50,
						"NORMAL":51,
						"TEXCOORD_0":52
					},
					"indices":53,
					"material":0
				}
			]
		},
		{
			"name":"rock.055",
			"primitives":[
				{
					"attributes":{
						"POSITION":54,
						"NORMAL":55,
						"TEXCOORD_0":56
					},
					"indices":57,
					"material":0
				}
			]
		},
		{
			"name":"rock.056",
			"primitives":[
				{
					"attributes":{
						"POSITION":58,
						"NORMAL":59,
						"TEXCOORD_0":60
					},
					"indices":61,
					"material":0
				}
			]
		},
		{
			"name":"rock.057",
			"primitives":[
				{
					"attributes":{
						"POSITION":62,
						"NORMAL":63,
						"TEXCOORD_0":64
					},
					"indices":65,
					"material":0
				}
			]
		},
		{
			"name":"3DModel_Retopo.003",
			"primitives":[
				{
					"attributes":{
						"POSITION":66,
						"NORMAL":67,
						"TEXCOORD_0":68
					},
					"indices":69,
					"material":0
				}
			]
		}
	],
	"textures":[
		{
			"sampler":0,
			"source":0
		}
	],
	"images":[
		{
			"mimeType":"image/png",
			"name":"objects_Bake1_CyclesBake_COMBINED",
			"uri":"textures/objects_Bake1_CyclesBake_COMBINED.png"
		}
	],
	"accessors":[
		{
			"bufferView":0,
			"componentType":5126,
			"count":4491,
			"max":[
				0.12108001112937927,
				0.46509599685668945,
				0.08718301355838776
			],
			"min":[
				-0.10631299763917923,
				-0.006543987430632114,
				-0.06998571008443832
			],
			"type":"VEC3"
		},
		{
			"bufferView":1,
			"componentType":5126,
			"count":4491,
			"type":"VEC3"
		},
		{
			"bufferView":2,
			"componentType":5126,
			"count":4491,
			"type":"VEC2"
		},
		{
			"bufferView":3,
			"componentType":5123,
			"count":25326,
			"type":"SCALAR"
		},
		{
			"bufferView":4,
			"componentType":5126,
			"count":248,
			"max":[
				1.7323198318481445,
				1.3564164638519287,
				2.2181520462036133
			],
			"min":[
				-0.07927399128675461,
				-0.12302844971418381,
				-6.189570426940918
			],
			"type":"VEC3"
		},
		{
			"bufferView":5,
			"componentType":5126,
			"count":248,
			"type":"VEC3"
		},
		{
			"bufferView":6,
			"componentType":5126,
			"count":248,
			"type":"VEC2"
		},
		{
			"bufferView":7,
			"componentType":5123,
			"count":372,
			"type":"SCALAR"
		},
		{
			"bufferView":8,
			"componentType":5126,
			"count":236,
			"max":[
				0.28268563747406006,
				0.4392833709716797,
				0.22655119001865387
			],
			"min":[
				-0.2869040369987488,
				0.09304393082857132,
				-0.2714007496833801
			],
			"type":"VEC3"
		},
		{
			"bufferView":9,
			"componentType":5126,
			"count":236,
			"type":"VEC3"
		},
		{
			"bufferView":10,
			"componentType":5126,
			"count":236,
			"type":"VEC2"
		},
		{
			"bufferView":11,
			"componentType":5123,
			"count":1212,
			"type":"SCALAR"
		},
		{
			"bufferView":12,
			"componentType":5126,
			"count":359,
			"max":[
				0.4697539508342743,
				0.5648953318595886,
				0.205452561378479
			],
			"min":[
				-0.5793876051902771,
				0.028153475373983383,
				-0.5369491577148438
			],
			"type":"VEC3"
		},
		{
			"bufferView":13,
			"componentType":5126,
			"count":359,
			"type":"VEC3"
		},
		{
			"bufferView":14,
			"componentType":5126,
			"count":359,
			"type":"VEC2"
		},
		{
			"bufferView":15,
			"componentType":5123,
			"count":1926,
			"type":"SCALAR"
		},
		{
			"bufferView":16,
			"componentType":5126,
			"count":526,
			"max":[
				0.24095290899276733,
				0.4132634103298187,
				0.3380630612373352
			],
			"min":[
				-0.36477532982826233,
				0.1833779364824295,
				-0.2564946413040161
			],
			"type":"VEC3"
		},
		{
			"bufferView":17,
			"componentType":5126,
			"count":526,
			"type":"VEC3"
		},
		{
			"bufferView":18,
			"componentType":5126,
			"count":526,
			"type":"VEC2"
		},
		{
			"bufferView":19,
			"componentType":5123,
			"count":2946,
			"type":"SCALAR"
		},
		{
			"bufferView":20,
			"componentType":5126,
			"count":807,
			"max":[
				0.22062303125858307,
				0.27880334854125977,
				0.19640180468559265
			],
			"min":[
				-0.21310123801231384,
				0.06014520674943924,
				-0.21621355414390564
			],
			"type":"VEC3"
		},
		{
			"bufferView":21,
			"componentType":5126,
			"count":807,
			"type":"VEC3"
		},
		{
			"bufferView":22,
			"componentType":5126,
			"count":807,
			"type":"VEC2"
		},
		{
			"bufferView":23,
			"componentType":5123,
			"count":4584,
			"type":"SCALAR"
		},
		{
			"bufferView":24,
			"componentType":5126,
			"count":163,
			"max":[
				0.22344179451465607,
				0.6193356513977051,
				0.4586277902126312
			],
			"min":[
				-0.41773611307144165,
				0.33251258730888367,
				-0.2955286502838135
			],
			"type":"VEC3"
		},
		{
			"bufferView":25,
			"componentType":5126,
			"count":163,
			"type":"VEC3"
		},
		{
			"bufferView":26,
			"componentType":5126,
			"count":163,
			"type":"VEC2"
		},
		{
			"bufferView":27,
			"componentType":5123,
			"count":816,
			"type":"SCALAR"
		},
		{
			"bufferView":28,
			"componentType":5126,
			"count":407,
			"max":[
				0.389723539352417,
				0.6162853240966797,
				0.5770094394683838
			],
			"min":[
				-0.5124008655548096,
				0.15508045256137848,
				-0.47211673855781555
			],
			"type":"VEC3"
		},
		{
			"bufferView":29,
			"componentType":5126,
			"count":407,
			"type":"VEC3"
		},
		{
			"bufferView":30,
			"componentType":5126,
			"count":407,
			"type":"VEC2"
		},
		{
			"bufferView":31,
			"componentType":5123,
			"count":2220,
			"type":"SCALAR"
		},
		{
			"bufferView":32,
			"componentType":5126,
			"count":392,
			"max":[
				0.30501416325569153,
				0.242545947432518,
				0.2181883454322815
			],
			"min":[
				-0.20629608631134033,
				-0.04147762805223465,
				-0.30950483679771423
			],
			"type":"VEC3"
		},
		{
			"bufferView":33,
			"componentType":5126,
			"count":392,
			"type":"VEC3"
		},
		{
			"bufferView":34,
			"componentType":5126,
			"count":392,
			"type":"VEC2"
		},
		{
			"bufferView":35,
			"componentType":5123,
			"count":2010,
			"type":"SCALAR"
		},
		{
			"bufferView":36,
			"componentType":5126,
			"count":219,
			"max":[
				0.2056724578142166,
				0.6076474189758301,
				0.41468101739883423
			],
			"min":[
				-0.512677013874054,
				0.33201703429222107,
				-0.3177982270717621
			],
			"type":"VEC3"
		},
		{
			"bufferView":37,
			"componentType":5126,
			"count":219,
			"type":"VEC3"
		},
		{
			"bufferView":38,
			"componentType":5126,
			"count":219,
			"type":"VEC2"
		},
		{
			"bufferView":39,
			"componentType":5123,
			"count":1146,
			"type":"SCALAR"
		},
		{
			"bufferView":40,
			"componentType":5126,
			"count":513,
			"max":[
				0.4932597577571869,
				0.5457282662391663,
				0.39363470673561096
			],
			"min":[
				-0.5396727919578552,
				0.24244602024555206,
				-0.4253212809562683
			],
			"type":"VEC3"
		},
		{
			"bufferView":41,
			"componentType":5126,
			"count":513,
			"type":"VEC3"
		},
		{
			"bufferView":42,
			"componentType":5126,
			"count":513,
			"type":"VEC2"
		},
		{
			"bufferView":43,
			"componentType":5123,
			"count":2832,
			"type":"SCALAR"
		},
		{
			"bufferView":44,
			"componentType":5126,
			"count":475,
			"max":[
				0.1331828385591507,
				0.1509171426296234,
				0.07409989088773727
			],
			"min":[
				-0.16058115661144257,
				0.01694253273308277,
				-0.14748884737491608
			],
			"type":"VEC3"
		},
		{
			"bufferView":45,
			"componentType":5126,
			"count":475,
			"type":"VEC3"
		},
		{
			"bufferView":46,
			"componentType":5126,
			"count":475,
			"type":"VEC2"
		},
		{
			"bufferView":47,
			"componentType":5121,
			"count":475,
			"normalized":true,
			"type":"VEC4"
		},
		{
			"bufferView":48,
			"componentType":5123,
			"count":475,
			"normalized":true,
			"type":"VEC4"
		},
		{
			"bufferView":49,
			"componentType":5123,
			"count":2592,
			"type":"SCALAR"
		},
		{
			"bufferView":50,
			"componentType":5126,
			"count":523,
			"max":[
				0.08662767708301544,
				0.14020265638828278,
				0.1000485047698021
			],
			"min":[
				-0.08781418949365616,
				0.06007055938243866,
				-0.08918632566928864
			],
			"type":"VEC3"
		},
		{
			"bufferView":51,
			"componentType":5126,
			"count":523,
			"type":"VEC3"
		},
		{
			"bufferView":52,
			"componentType":5126,
			"count":523,
			"type":"VEC2"
		},
		{
			"bufferView":53,
			"componentType":5123,
			"count":2862,
			"type":"SCALAR"
		},
		{
			"bufferView":54,
			"componentType":5126,
			"count":454,
			"max":[
				0.10077667236328125,
				0.15198206901550293,
				0.11322569847106934
			],
			"min":[
				-0.125949889421463,
				0.05371325463056564,
				-0.10729523003101349
			],
			"type":"VEC3"
		},
		{
			"bufferView":55,
			"componentType":5126,
			"count":454,
			"type":"VEC3"
		},
		{
			"bufferView":56,
			"componentType":5126,
			"count":454,
			"type":"VEC2"
		},
		{
			"bufferView":57,
			"componentType":5123,
			"count":2454,
			"type":"SCALAR"
		},
		{
			"bufferView":58,
			"componentType":5126,
			"count":568,
			"max":[
				0.13074803352355957,
				0.1583871990442276,
				0.12175670266151428
			],
			"min":[
				-0.14897792041301727,
				0.06142694503068924,
				-0.12532591819763184
			],
			"type":"VEC3"
		},
		{
			"bufferView":59,
			"componentType":5126,
			"count":568,
			"type":"VEC3"
		},
		{
			"bufferView":60,
			"componentType":5126,
			"count":568,
			"type":"VEC2"
		},
		{
			"bufferView":61,
			"componentType":5123,
			"count":3156,
			"type":"SCALAR"
		},
		{
			"bufferView":62,
			"componentType":5126,
			"count":505,
			"max":[
				0.1428084671497345,
				0.16650690138339996,
				0.1436474323272705
			],
			"min":[
				-0.10062959790229797,
				0.02222134731709957,
				-0.1510523557662964
			],
			"type":"VEC3"
		},
		{
			"bufferView":63,
			"componentType":5126,
			"count":505,
			"type":"VEC3"
		},
		{
			"bufferView":64,
			"componentType":5126,
			"count":505,
			"type":"VEC2"
		},
		{
			"bufferView":65,
			"componentType":5123,
			"count":2808,
			"type":"SCALAR"
		},
		{
			"bufferView":66,
			"componentType":5126,
			"count":4462,
			"max":[
				0.3129335939884186,
				1.0264359712600708,
				0.5694814324378967
			],
			"min":[
				-0.31327658891677856,
				0.06537371128797531,
				-0.5109837055206299
			],
			"type":"VEC3"
		},
		{
			"bufferView":67,
			"componentType":5126,
			"count":4462,
			"type":"VEC3"
		},
		{
			"bufferView":68,
			"componentType":5126,
			"count":4462,
			"type":"VEC2"
		},
		{
			"bufferView":69,
			"componentType":5123,
			"count":7314,
			"type":"SCALAR"
		}
	],
	"bufferViews":[
		{
			"buffer":0,
			"byteLength":53892,
			"byteOffset":0,
			"target":34962
		},
		{
			"buffer":0,
			"byteLength":53892,
			"byteOffset":53892,
			"target":34962
		},
		{
			"buffer":0,
			"byteLength":35928,
			"byteOffset":107784,
			"target":34962
		},
		{
			"buffer":0,
			"byteLength":50652,
			"byteOffset":143712,
			"target":34963
		},
		{
			"buffer":0,
			"byteLength":2976,
			"byteOffset":194364,
			"target":34962
		},
		{
			"buffer":0,
			"byteLength":2976,
			"byteOffset":197340,
			"target":34962
		},
		{
			"buffer":0,
			"byteLength":1984,
			"byteOffset":200316,
			"target":34962
		},
		{
			"buffer":0,
			"byteLength":744,
			"byteOffset":202300,
			"target":34963
		},
		{
			"buffer":0,
			"byteLength":2832,
			"byteOffset":203044,
			"target":34962
		},
		{
			"buffer":0,
			"byteLength":2832,
			"byteOffset":205876,
			"target":34962
		},
		{
			"buffer":0,
			"byteLength":1888,
			"byteOffset":208708,
			"target":34962
		},
		{
			"buffer":0,
			"byteLength":2424,
			"byteOffset":210596,
			"target":34963
		},
		{
			"buffer":0,
			"byteLength":4308,
			"byteOffset":213020,
			"target":34962
		},
		{
			"buffer":0,
			"byteLength":4308,
			"byteOffset":217328,
			"target":34962
		},
		{
			"buffer":0,
			"byteLength":2872,
			"byteOffset":221636,
			"target":34962
		},
		{
			"buffer":0,
			"byteLength":3852,
			"byteOffset":224508,
			"target":34963
		},
		{
			"buffer":0,
			"byteLength":6312,
			"byteOffset":228360,
			"target":34962
		},
		{
			"buffer":0,
			"byteLength":6312,
			"byteOffset":234672,
			"target":34962
		},
		{
			"buffer":0,
			"byteLength":4208,
			"byteOffset":240984,
			"target":34962
		},
		{
			"buffer":0,
			"byteLength":5892,
			"byteOffset":245192,
			"target":34963
		},
		{
			"buffer":0,
			"byteLength":9684,
			"byteOffset":251084,
			"target":34962
		},
		{
			"buffer":0,
			"byteLength":9684,
			"byteOffset":260768,
			"target":34962
		},
		{
			"buffer":0,
			"byteLength":6456,
			"byteOffset":270452,
			"target":34962
		},
		{
			"buffer":0,
			"byteLength":9168,
			"byteOffset":276908,
			"target":34963
		},
		{
			"buffer":0,
			"byteLength":1956,
			"byteOffset":286076,
			"target":34962
		},
		{
			"buffer":0,
			"byteLength":1956,
			"byteOffset":288032,
			"target":34962
		},
		{
			"buffer":0,
			"byteLength":1304,
			"byteOffset":289988,
			"target":34962
		},
		{
			"buffer":0,
			"byteLength":1632,
			"byteOffset":291292,
			"target":34963
		},
		{
			"buffer":0,
			"byteLength":4884,
			"byteOffset":292924,
			"target":34962
		},
		{
			"buffer":0,
			"byteLength":4884,
			"byteOffset":297808,
			"target":34962
		},
		{
			"buffer":0,
			"byteLength":3256,
			"byteOffset":302692,
			"target":34962
		},
		{
			"buffer":0,
			"byteLength":4440,
			"byteOffset":305948,
			"target":34963
		},
		{
			"buffer":0,
			"byteLength":4704,
			"byteOffset":310388,
			"target":34962
		},
		{
			"buffer":0,
			"byteLength":4704,
			"byteOffset":315092,
			"target":34962
		},
		{
			"buffer":0,
			"byteLength":3136,
			"byteOffset":319796,
			"target":34962
		},
		{
			"buffer":0,
			"byteLength":4020,
			"byteOffset":322932,
			"target":34963
		},
		{
			"buffer":0,
			"byteLength":2628,
			"byteOffset":326952,
			"target":34962
		},
		{
			"buffer":0,
			"byteLength":2628,
			"byteOffset":329580,
			"target":34962
		},
		{
			"buffer":0,
			"byteLength":1752,
			"byteOffset":332208,
			"target":34962
		},
		{
			"buffer":0,
			"byteLength":2292,
			"byteOffset":333960,
			"target":34963
		},
		{
			"buffer":0,
			"byteLength":6156,
			"byteOffset":336252,
			"target":34962
		},
		{
			"buffer":0,
			"byteLength":6156,
			"byteOffset":342408,
			"target":34962
		},
		{
			"buffer":0,
			"byteLength":4104,
			"byteOffset":348564,
			"target":34962
		},
		{
			"buffer":0,
			"byteLength":5664,
			"byteOffset":352668,
			"target":34963
		},
		{
			"buffer":0,
			"byteLength":5700,
			"byteOffset":358332,
			"target":34962
		},
		{
			"buffer":0,
			"byteLength":5700,
			"byteOffset":364032,
			"target":34962
		},
		{
			"buffer":0,
			"byteLength":3800,
			"byteOffset":369732,
			"target":34962
		},
		{
			"buffer":0,
			"byteLength":1900,
			"byteOffset":373532,
			"target":34962
		},
		{
			"buffer":0,
			"byteLength":3800,
			"byteOffset":375432,
			"target":34962
		},
		{
			"buffer":0,
			"byteLength":5184,
			"byteOffset":379232,
			"target":34963
		},
		{
			"buffer":0,
			"byteLength":6276,
			"byteOffset":384416,
			"target":34962
		},
		{
			"buffer":0,
			"byteLength":6276,
			"byteOffset":390692,
			"target":34962
		},
		{
			"buffer":0,
			"byteLength":4184,
			"byteOffset":396968,
			"target":34962
		},
		{
			"buffer":0,
			"byteLength":5724,
			"byteOffset":401152,
			"target":34963
		},
		{
			"buffer":0,
			"byteLength":5448,
			"byteOffset":406876,
			"target":34962
		},
		{
			"buffer":0,
			"byteLength":5448,
			"byteOffset":412324,
			"target":34962
		},
		{
			"buffer":0,
			"byteLength":3632,
			"byteOffset":417772,
			"target":34962
		},
		{
			"buffer":0,
			"byteLength":4908,
			"byteOffset":421404,
			"target":34963
		},
		{
			"buffer":0,
			"byteLength":6816,
			"byteOffset":426312,
			"target":34962
		},
		{
			"buffer":0,
			"byteLength":6816,
			"byteOffset":433128,
			"target":34962
		},
		{
			"buffer":0,
			"byteLength":4544,
			"byteOffset":439944,
			"target":34962
		},
		{
			"buffer":0,
			"byteLength":6312,
			"byteOffset":444488,
			"target":34963
		},
		{
			"buffer":0,
			"byteLength":6060,
			"byteOffset":450800,
			"target":34962
		},
		{
			"buffer":0,
			"byteLength":6060,
			"byteOffset":456860,
			"target":34962
		},
		{
			"buffer":0,
			"byteLength":4040,
			"byteOffset":462920,
			"target":34962
		},
		{
			"buffer":0,
			"byteLength":5616,
			"byteOffset":466960,
			"target":34963
		},
		{
			"buffer":0,
			"byteLength":53544,
			"byteOffset":472576,
			"target":34962
		},
		{
			"buffer":0,
			"byteLength":53544,
			"byteOffset":526120,
			"target":34962
		},
		{
			"buffer":0,
			"byteLength":35696,
			"byteOffset":579664,
			"target":34962
		},
		{
			"buffer":0,
			"byteLength":14628,
			"byteOffset":615360,
			"target":34963
		}
	],
	"samplers":[
		{
			"magFilter":9729,
			"minFilter":9987
		}
	],
	"buffers":[
		{
			"byteLength":629988,
			"uri":"example_terrain_objects.bin"
		}
	]
}
