{
	"asset":{
		"generator":"Khronos glTF Blender I/O v4.5.47",
		"version":"2.0"
	},
	"scene":0,
	"scenes":[
		{
			"name":"Scene",
			"nodes":[
				0
			]
		}
	],
	"nodes":[
		{
			"mesh":0,
			"name":"Wild White Flower Patch_Baked"
		}
	],
	"materials":[
		{
			"doubleSided":true,
			"name":"Wild White Flower Patch_Baked.001",
			"normalTexture":{
				"index":0
			},
			"occlusionTexture":{
				"index":1
			},
			"pbrMetallicRoughness":{
				"baseColorTexture":{
					"index":2
				},
				"metallicRoughnessTexture":{
					"index":1
				}
			}
		}
	],
	"meshes":[
		{
			"name":"Untitled.003",
			"primitives":[
				{
					"attributes":{
						"POSITION":0,
						"NORMAL":1,
						"TEXCOORD_0":2
					},
					"indices":3,
					"material":0
				}
			]
		}
	],
	"textures":[
		{
			"sampler":0,
			"source":0
		},
		{
			"sampler":0,
			"source":1
		},
		{
			"sampler":0,
			"source":2
		}
	],
	"images":[
		{
			"mimeType":"image/png",
			"name":"Wild White Flower Patch_Bake1_PBR_Normal",
			"uri":"textures/Wild%20White%20Flower%20Patch_Bake1_PBR_Normal.png"
		},
		{
			"mimeType":"image/png",
			"name":"Wild White Flower Patch_Bake1_PBR_Ambient Occlusion-Wild White Flower Patch_Bake1_PBR_Roughness-Wild White Flower Patch_Bake1_PBR_Metalness",
			"uri":"textures/Wild%20White%20Flower%20Patch_Bake1_PBR_Ambient%20Occlusion-Wild%20White%20Flower%20Patch_Bake1_PBR_Roughness-Wild%20White%20Flower%20Patch_Bake1_PBR_Metalness.png"
		},
		{
			"mimeType":"image/png",
			"name":"Wild White Flower Patch_Bake1_PBR_Diffuse",
			"uri":"textures/Wild%20White%20Flower%20Patch_Bake1_PBR_Diffuse.png"
		}
	],
	"accessors":[
		{
			"bufferView":0,
			"componentType":5126,
			"count":6197,
			"max":[
				0.1321164220571518,
				0.20930272340774536,
				0.14513161778450012
			],
			"min":[
				-0.14037448167800903,
				-0.001145832589827478,
				-0.13830526173114777
			],
			"type":"VEC3"
		},
		{
			"bufferView":1,
			"componentType":5126,
			"count":6197,
			"type":"VEC3"
		},
		{
			"bufferView":2,
			"componentType":5126,
			"count":6197,
			"type":"VEC2"
		},
		{
			"bufferView":3,
			"componentType":5123,
			"count":21696,
			"type":"SCALAR"
		}
	],
	"bufferViews":[
		{
			"buffer":0,
			"byteLength":74364,
			"byteOffset":0,
			"target":34962
		},
		{
			"buffer":0,
			"byteLength":74364,
			"byteOffset":74364,
			"target":34962
		},
		{
			"buffer":0,
			"byteLength":49576,
			"byteOffset":148728,
			"target":34962
		},
		{
			"buffer":0,
			"byteLength":43392,
			"byteOffset":198304,
			"target":34963
		}
	],
	"samplers":[
		{
			"magFilter":9729,
			"minFilter":9987
		}
	],
	"buffers":[
		{
			"byteLength":241696,
			"uri":"flowers.bin"
		}
	]
}
