{
	"asset":{
		"generator":"Khronos glTF Blender I/O v4.5.47",
		"version":"2.0"
	},
	"extensionsUsed":[
		"KHR_materials_specular",
		"KHR_materials_ior"
	],
	"scene":0,
	"scenes":[
		{
			"name":"Scene",
			"nodes":[
				0
			]
		}
	],
	"nodes":[
		{
			"mesh":0,
			"name":"Weed"
		}
	],
	"materials":[
		{
			"alphaMode":"BLEND",
			"doubleSided":true,
			"extensions":{
				"KHR_materials_specular":{
					"specularColorTexture":{
						"index":0
					}
				},
				"KHR_materials_ior":{
					"ior":1.4500000476837158
				}
			},
			"name":"unkraut.001",
			"normalTexture":{
				"index":1
			},
			"pbrMetallicRoughness":{
				"baseColorTexture":{
					"index":2
				},
				"metallicFactor":0,
				"metallicRoughnessTexture":{
					"index":3
				}
			}
		}
	],
	"meshes":[
		{
			"name":"Mesh",
			"primitives":[
				{
					"attributes":{
						"POSITION":0,
						"NORMAL":1,
						"TEXCOORD_0":2
					},
					"indices":3,
					"material":0
				}
			]
		}
	],
	"textures":[
		{
			"sampler":0,
			"source":0
		},
		{
			"sampler":0,
			"source":1
		},
		{
			"sampler":0,
			"source":0
		},
		{
			"sampler":0,
			"source":2
		}
	],
	"images":[
		{
			"mimeType":"image/png",
			"name":"Unkraut",
			"uri":"textures/Unkraut.png"
		},
		{
			"mimeType":"image/jpeg",
			"name":"Unkraut normal",
			"uri":"textures/Unkraut%20normal.jpg"
		},
		{
			"mimeType":"image/png",
			"name":"Unkraut ruffnis",
			"uri":"textures/Unkraut%20ruffnis.png"
		}
	],
	"accessors":[
		{
			"bufferView":0,
			"componentType":5126,
			"count":765,
			"max":[
				0.06543941795825958,
				0.029586568474769592,
				0.05631975829601288
			],
			"min":[
				-0.06511236727237701,
				8.355149475391954e-06,
				-0.06623591482639313
			],
			"type":"VEC3"
		},
		{
			"bufferView":1,
			"componentType":5126,
			"count":765,
			"type":"VEC3"
		},
		{
			"bufferView":2,
			"componentType":5126,
			"count":765,
			"type":"VEC2"
		},
		{
			"bufferView":3,
			"componentType":5123,
			"count":3840,
			"type":"SCALAR"
		}
	],
	"bufferViews":[
		{
			"buffer":0,
			"byteLength":9180,
			"byteOffset":0,
			"target":34962
		},
		{
			"buffer":0,
			"byteLength":9180,
			"byteOffset":9180,
			"target":34962
		},
		{
			"buffer":0,
			"byteLength":6120,
			"byteOffset":18360,
			"target":34962
		},
		{
			"buffer":0,
			"byteLength":7680,
			"byteOffset":24480,
			"target":34963
		}
	],
	"samplers":[
		{
			"magFilter":9729,
			"minFilter":9987
		}
	],
	"buffers":[
		{
			"byteLength":32160,
			"uri":"weed.bin"
		}
	]
}
